ply
format ascii 1.0
comment Created by Blender 3.0.0 - www.blender.org
element vertex 424
property float x
property float y
property float z
property float nx
property float ny
property float nz
property float s
property float t
element face 128
property list uchar uint vertex_indices
end_header
-0.000000 4.554372 0.717156 0.462601 -0.801247 -0.379477 0.541151 0.689294
0.000000 4.000000 1.887686 0.462601 -0.801247 -0.379477 0.550508 0.599868
-0.480100 4.277186 0.717156 0.462601 -0.801247 -0.379477 0.589914 0.680687
-0.480100 4.277186 0.717156 0.925201 0.000000 -0.379477 0.982382 0.875620
0.000000 4.000000 1.887686 0.925201 0.000000 -0.379477 0.982382 0.991306
-0.480100 3.722814 0.717156 0.925201 0.000000 -0.379477 0.934013 0.886217
-0.480100 3.722814 0.717156 0.462601 0.801248 -0.379477 0.203782 0.704955
0.000000 4.000000 1.887686 0.462601 0.801248 -0.379477 0.164376 0.785774
-0.000000 3.445628 0.717156 0.462601 0.801248 -0.379477 0.155019 0.696348
-0.000000 3.445628 0.717156 -0.462601 0.801247 -0.379477 0.958463 0.379041
0.000000 4.000000 1.887686 -0.462601 0.801247 -0.379477 0.958463 0.494726
0.480100 3.722814 0.717156 -0.462601 0.801247 -0.379477 0.910093 0.389638
0.480100 3.722814 0.717156 -0.925201 0.000000 -0.379477 0.795583 0.090055
0.000000 4.000000 1.887686 -0.925201 0.000000 -0.379477 0.804941 0.000629
0.480100 4.277186 0.717156 -0.925201 0.000000 -0.379477 0.844347 0.081448
0.480100 4.277186 0.717156 -0.462601 -0.801247 -0.379477 0.893975 0.100144
0.000000 4.000000 1.887686 -0.462601 -0.801247 -0.379477 0.893975 0.215830
-0.000000 4.554372 0.717156 -0.462601 -0.801247 -0.379477 0.845605 0.110741
-0.000000 4.554372 0.717156 0.476065 -0.824567 0.305699 0.541151 0.689294
-0.480100 4.277186 0.717156 0.476065 -0.824567 0.305699 0.589914 0.680687
-0.000000 4.000000 -0.778160 0.476065 -0.824567 0.305699 0.589914 0.823133
-0.480100 4.277186 0.717156 0.952128 0.000000 0.305699 0.982382 0.875620
-0.480100 3.722814 0.717156 0.952128 0.000000 0.305699 0.934013 0.886217
-0.000000 4.000000 -0.778160 0.952128 0.000000 0.305699 0.935234 0.776105
-0.480100 3.722814 0.717156 0.476064 0.824567 0.305699 0.203782 0.704955
-0.000000 3.445628 0.717156 0.476064 0.824567 0.305699 0.155019 0.696348
-0.000000 4.000000 -0.778160 0.476064 0.824567 0.305699 0.203782 0.562508
-0.000000 3.445628 0.717156 -0.476064 0.824567 0.305699 0.958463 0.379041
0.480100 3.722814 0.717156 -0.476064 0.824567 0.305699 0.910093 0.389638
-0.000000 4.000000 -0.778160 -0.476064 0.824567 0.305699 0.911314 0.279526
0.480100 3.722814 0.717156 -0.952128 0.000000 0.305699 0.795583 0.090055
0.480100 4.277186 0.717156 -0.952128 0.000000 0.305699 0.844347 0.081448
-0.000000 4.000000 -0.778160 -0.952128 0.000000 0.305699 0.844347 0.223895
0.480100 4.277186 0.717156 -0.476064 -0.824567 0.305699 0.893975 0.100144
-0.000000 4.554372 0.717156 -0.476064 -0.824567 0.305699 0.845605 0.110741
-0.000000 4.000000 -0.778160 -0.476064 -0.824567 0.305699 0.846826 0.000629
4.000000 0.554372 0.717156 0.462601 -0.801248 -0.379477 0.000629 0.685727
4.000000 -0.000000 1.887686 0.462601 -0.801248 -0.379477 0.009987 0.596301
3.519900 0.277186 0.717156 0.462601 -0.801248 -0.379477 0.049392 0.677120
3.519900 0.277186 0.717156 0.925201 0.000000 -0.379477 0.932755 0.875620
4.000000 -0.000000 1.887686 0.925201 0.000000 -0.379477 0.932755 0.991306
3.519900 -0.277186 0.717156 0.925201 0.000000 -0.379477 0.884385 0.886217
3.519900 -0.277186 0.717156 0.462600 0.801248 -0.379477 0.783478 0.702093
4.000000 -0.000000 1.887686 0.462600 0.801248 -0.379477 0.744072 0.782912
4.000000 -0.554372 0.717156 0.462600 0.801248 -0.379477 0.734714 0.693486
4.000000 -0.554372 0.717156 -0.462600 0.801248 -0.379477 0.943602 0.100144
4.000000 -0.000000 1.887686 -0.462600 0.801248 -0.379477 0.943602 0.215830
4.480101 -0.277186 0.717156 -0.462600 0.801248 -0.379477 0.895233 0.110741
4.480101 -0.277186 0.717156 -0.925201 0.000000 -0.379477 0.784736 0.649072
4.000000 -0.000000 1.887686 -0.925201 0.000000 -0.379477 0.794093 0.559646
4.480101 0.277186 0.717156 -0.925201 0.000000 -0.379477 0.833499 0.640466
4.480101 0.277186 0.717156 -0.462600 -0.801248 -0.379477 0.883127 0.659161
4.000000 -0.000000 1.887686 -0.462600 -0.801248 -0.379477 0.883127 0.774847
4.000000 0.554372 0.717156 -0.462600 -0.801248 -0.379477 0.834757 0.669758
4.000000 0.554372 0.717156 0.476064 -0.824567 0.305699 0.000629 0.685727
3.519900 0.277186 0.717156 0.476064 -0.824567 0.305699 0.049392 0.677120
4.000000 0.000000 -0.778160 0.476064 -0.824567 0.305699 0.049392 0.819566
3.519900 0.277186 0.717156 0.952128 -0.000000 0.305699 0.932755 0.875620
3.519900 -0.277186 0.717156 0.952128 -0.000000 0.305699 0.884385 0.886217
4.000000 0.000000 -0.778160 0.952128 -0.000000 0.305699 0.885606 0.776105
3.519900 -0.277186 0.717156 0.476064 0.824567 0.305699 0.783478 0.702093
4.000000 -0.554372 0.717156 0.476064 0.824567 0.305699 0.734714 0.693486
4.000000 0.000000 -0.778160 0.476064 0.824567 0.305699 0.783478 0.559646
4.000000 -0.554372 0.717156 -0.476064 0.824567 0.305699 0.943602 0.100144
4.480101 -0.277186 0.717156 -0.476064 0.824567 0.305699 0.895233 0.110741
4.000000 0.000000 -0.778160 -0.476064 0.824567 0.305699 0.896454 0.000629
4.480101 -0.277186 0.717156 -0.952128 0.000000 0.305699 0.784736 0.649072
4.480101 0.277186 0.717156 -0.952128 0.000000 0.305699 0.833499 0.640466
4.000000 0.000000 -0.778160 -0.952128 0.000000 0.305699 0.833499 0.782912
4.480101 0.277186 0.717156 -0.476064 -0.824567 0.305699 0.883127 0.659161
4.000000 0.554372 0.717156 -0.476064 -0.824567 0.305699 0.834757 0.669758
4.000000 0.000000 -0.778160 -0.476064 -0.824567 0.305699 0.835978 0.559646
-0.000000 -3.445628 0.717156 0.462601 0.801248 0.379477 0.238344 0.694605
0.000000 -4.000000 1.887686 0.462601 0.801248 0.379477 0.247702 0.605179
0.480100 -3.722814 0.717156 0.462601 0.801248 0.379477 0.287107 0.685998
0.480100 -3.722814 0.717156 0.925201 -0.000000 0.379477 0.993230 0.100144
0.000000 -4.000000 1.887686 0.925201 -0.000000 0.379477 0.993230 0.215830
0.480100 -4.277186 0.717156 0.925201 -0.000000 0.379477 0.944860 0.110741
0.480100 -4.277186 0.717156 0.462601 -0.801247 0.379477 0.652465 0.708865
0.000000 -4.000000 1.887686 0.462601 -0.801247 0.379477 0.613060 0.789685
-0.000000 -4.554372 0.717156 0.462601 -0.801247 0.379477 0.603702 0.700258
-0.000000 -4.554372 0.717156 -0.462601 -0.801247 0.379477 0.982382 0.659161
0.000000 -4.000000 1.887686 -0.462601 -0.801247 0.379477 0.982382 0.774847
-0.480100 -4.277186 0.717156 -0.462601 -0.801247 0.379477 0.934013 0.669758
-0.480100 -4.277186 0.717156 -0.925201 0.000000 0.379477 0.810444 0.368952
0.000000 -4.000000 1.887686 -0.925201 0.000000 0.379477 0.819802 0.279526
-0.480100 -3.722814 0.717156 -0.925201 0.000000 0.379477 0.859207 0.360345
-0.480100 -3.722814 0.717156 -0.462601 0.801247 0.379477 0.908835 0.379041
0.000000 -4.000000 1.887686 -0.462601 0.801247 0.379477 0.908835 0.494726
-0.000000 -3.445628 0.717156 -0.462601 0.801247 0.379477 0.860465 0.389638
-0.000000 -3.445628 0.717156 0.476064 0.824567 -0.305699 0.238344 0.694605
0.480100 -3.722814 0.717156 0.476064 0.824567 -0.305699 0.287107 0.685998
-0.000001 -4.000000 -0.778160 0.476064 0.824567 -0.305699 0.287107 0.828444
0.480100 -3.722814 0.717156 0.952128 -0.000000 -0.305699 0.993230 0.100144
0.480100 -4.277186 0.717156 0.952128 -0.000000 -0.305699 0.944860 0.110741
-0.000001 -4.000000 -0.778160 0.952128 -0.000000 -0.305699 0.946082 0.000629
0.480100 -4.277186 0.717156 0.476064 -0.824567 -0.305699 0.652465 0.708865
-0.000000 -4.554372 0.717156 0.476064 -0.824567 -0.305699 0.603702 0.700258
-0.000001 -4.000000 -0.778160 0.476064 -0.824567 -0.305699 0.652465 0.566418
-0.000000 -4.554372 0.717156 -0.476065 -0.824567 -0.305699 0.982382 0.659161
-0.480100 -4.277186 0.717156 -0.476065 -0.824567 -0.305699 0.934013 0.669758
-0.000001 -4.000000 -0.778160 -0.476065 -0.824567 -0.305699 0.935234 0.559646
-0.480100 -4.277186 0.717156 -0.952128 -0.000000 -0.305699 0.810444 0.368952
-0.480100 -3.722814 0.717156 -0.952128 -0.000000 -0.305699 0.859207 0.360345
-0.000001 -4.000000 -0.778160 -0.952128 -0.000000 -0.305699 0.859207 0.502792
-0.480100 -3.722814 0.717156 -0.476065 0.824567 -0.305699 0.908835 0.379041
-0.000000 -3.445628 0.717156 -0.476065 0.824567 -0.305699 0.860465 0.389638
-0.000001 -4.000000 -0.778160 -0.476065 0.824567 -0.305699 0.861687 0.279526
-4.000000 0.554372 0.717156 0.462601 0.801248 0.379477 0.288366 0.694605
-4.000000 -0.000000 1.887686 0.462601 0.801248 0.379477 0.297723 0.605179
-3.519900 0.277186 0.717156 0.462601 0.801248 0.379477 0.337129 0.685998
-3.519900 0.277186 0.717156 0.925201 0.000000 0.379477 0.783084 0.883685
-4.000000 -0.000000 1.887686 0.925201 0.000000 0.379477 0.783084 0.999371
-3.519900 -0.277186 0.717156 0.925201 0.000000 0.379477 0.734714 0.894282
-3.519900 -0.277186 0.717156 0.462601 -0.801248 0.379477 0.794325 0.143075
-4.000000 -0.000000 1.887686 0.462601 -0.801248 0.379477 0.754920 0.223895
-4.000000 -0.554372 0.717156 0.462601 -0.801248 0.379477 0.745562 0.134469
-4.000000 -0.554372 0.717156 -0.462600 -0.801248 0.379477 0.883127 0.875620
-4.000000 -0.000000 1.887686 -0.462600 -0.801248 0.379477 0.883127 0.991306
-4.480101 -0.277186 0.717156 -0.462600 -0.801248 0.379477 0.834757 0.886217
-4.480101 -0.277186 0.717156 -0.925201 0.000000 0.379478 0.077824 0.727994
-4.000000 -0.000000 1.887686 -0.925201 0.000000 0.379478 0.087182 0.638568
-4.480101 0.277186 0.717156 -0.925201 0.000000 0.379478 0.126587 0.719388
-4.480101 0.277186 0.717156 -0.462600 0.801248 0.379477 0.932755 0.659161
-4.000000 -0.000000 1.887686 -0.462600 0.801248 0.379477 0.932755 0.774847
-4.000000 0.554372 0.717156 -0.462600 0.801248 0.379477 0.884385 0.669758
-4.000000 0.554372 0.717156 0.476064 0.824567 -0.305699 0.288366 0.694605
-3.519900 0.277186 0.717156 0.476064 0.824567 -0.305699 0.337129 0.685998
-4.000000 0.000000 -0.778160 0.476064 0.824567 -0.305699 0.337129 0.828444
-3.519900 0.277186 0.717156 0.952128 0.000000 -0.305699 0.783084 0.883685
-3.519900 -0.277186 0.717156 0.952128 0.000000 -0.305699 0.734714 0.894282
-4.000000 0.000000 -0.778160 0.952128 0.000000 -0.305699 0.735935 0.784170
-3.519900 -0.277186 0.717156 0.476064 -0.824567 -0.305699 0.794325 0.143075
-4.000000 -0.554372 0.717156 0.476064 -0.824567 -0.305699 0.745562 0.134469
-4.000000 0.000000 -0.778160 0.476064 -0.824567 -0.305699 0.794325 0.000629
-4.000000 -0.554372 0.717156 -0.476064 -0.824567 -0.305699 0.883127 0.875620
-4.480101 -0.277186 0.717156 -0.476064 -0.824567 -0.305699 0.834757 0.886217
-4.000000 0.000000 -0.778160 -0.476064 -0.824567 -0.305699 0.835978 0.776105
-4.480101 -0.277186 0.717156 -0.952128 -0.000000 -0.305699 0.077824 0.727994
-4.480101 0.277186 0.717156 -0.952128 -0.000000 -0.305699 0.126587 0.719388
-4.000000 0.000000 -0.778160 -0.952128 -0.000000 -0.305699 0.126587 0.861834
-4.480101 0.277186 0.717156 -0.476064 0.824567 -0.305699 0.932755 0.659161
-4.000000 0.554372 0.717156 -0.476064 0.824567 -0.305699 0.884385 0.669758
-4.000000 0.000000 -0.778160 -0.476064 0.824567 -0.305699 0.885606 0.559646
-0.555430 -0.406425 3.376721 -0.149824 -0.967230 0.204986 0.238344 0.185115
0.339975 -0.454110 3.380284 -0.149824 -0.967230 0.204986 0.311433 0.194049
0.059933 -0.174069 4.922865 -0.149824 -0.967230 0.204986 0.272620 0.317126
-0.275389 -0.126384 4.476898 -0.149824 -0.967230 0.204986 0.249415 0.277519
0.132989 -0.289319 1.736217 -0.024264 -0.996394 -0.081309 0.309758 0.057970
0.339975 -0.454110 3.380284 -0.024264 -0.996394 -0.081309 0.311433 0.194049
-0.555430 -0.406425 3.376721 -0.024264 -0.996394 -0.081309 0.238344 0.185115
-0.298009 -0.274645 1.371429 -0.024264 -0.996394 -0.081309 0.278111 0.024063
-0.298009 -0.274645 1.371429 -0.994058 0.031615 -0.104163 0.547811 0.570716
-0.555430 -0.406425 3.376721 -0.994058 0.031615 -0.104163 0.541151 0.405752
-0.483452 0.339480 3.327549 -0.994058 0.031615 -0.104163 0.602444 0.411665
-0.329738 0.276934 1.430287 -0.994058 0.031615 -0.104163 0.593084 0.567260
0.219493 0.316705 1.771754 0.993527 -0.053656 -0.100129 0.076566 0.063362
0.339975 0.475309 3.380284 0.993527 -0.053656 -0.100129 0.076566 0.195971
0.339975 -0.454110 3.380284 0.993527 -0.053656 -0.100129 0.000629 0.188385
0.132989 -0.289319 1.736217 0.993527 -0.053656 -0.100129 0.027236 0.055593
-0.329738 0.276934 1.430287 -0.108641 0.992044 -0.063609 0.263336 0.575016
-0.483452 0.339480 3.327549 -0.108641 0.992044 -0.063609 0.238344 0.420882
0.339975 0.475309 3.380284 -0.108641 0.992044 -0.063609 0.306075 0.411001
0.219493 0.316705 1.771754 -0.108641 0.992044 -0.063609 0.306075 0.543324
0.041566 0.160581 4.534292 -0.558767 0.482217 0.674719 0.592591 0.312254
-0.330563 0.304695 4.257307 -0.558767 0.482217 0.674719 0.602444 0.335289
-0.275389 -0.126384 4.476898 -0.558767 0.482217 0.674719 0.567831 0.316195
0.059933 -0.174069 4.922865 -0.558767 0.482217 0.674719 0.566183 0.279526
-0.483452 0.339480 3.327549 -0.977700 0.059921 0.201277 0.602444 0.411665
-0.555430 -0.406425 3.376721 -0.977700 0.059921 0.201277 0.541151 0.405752
-0.275389 -0.126384 4.476898 -0.977700 0.059921 0.201277 0.567831 0.316195
-0.330563 0.304695 4.257307 -0.977700 0.059921 0.201277 0.602444 0.335289
0.339975 -0.454110 3.380284 0.974514 0.078731 0.210057 0.000629 0.188385
0.339975 0.475309 3.380284 0.974514 0.078731 0.210057 0.076566 0.195971
0.041566 0.160581 4.534292 0.974514 0.078731 0.210057 0.041085 0.287968
0.059933 -0.174069 4.922865 0.974514 0.078731 0.210057 0.010600 0.316969
0.339975 0.475309 3.380284 -0.038043 0.985939 0.162716 0.306075 0.411001
-0.483452 0.339480 3.327549 -0.038043 0.985939 0.162716 0.238344 0.420882
-0.330563 0.304695 4.257307 -0.038043 0.985939 0.162716 0.244246 0.343725
0.041566 0.160581 4.534292 -0.038043 0.985939 0.162716 0.271696 0.318384
-0.329738 0.276934 1.430287 0.230954 0.851553 -0.470657 0.263336 0.575016
0.219493 0.316705 1.771754 0.230954 0.851553 -0.470657 0.306075 0.543324
0.082870 -0.051151 1.039157 0.230954 0.851553 -0.470657 0.297340 0.603920
0.219493 0.316705 1.771754 0.984165 -0.133653 -0.116428 0.076566 0.063362
0.132989 -0.289319 1.736217 0.984165 -0.133653 -0.116428 0.027236 0.055593
0.082870 -0.051151 1.039157 0.984165 -0.133653 -0.116428 0.052313 0.000629
0.132989 -0.289319 1.736217 0.247561 -0.911248 -0.329151 0.309758 0.057970
-0.298009 -0.274645 1.371429 0.247561 -0.911248 -0.329151 0.278111 0.024063
0.082870 -0.051151 1.039157 0.247561 -0.911248 -0.329151 0.311433 0.000629
-0.298009 -0.274645 1.371429 -0.670242 0.040520 -0.741036 0.547811 0.570716
-0.329738 0.276934 1.430287 -0.670242 0.040520 -0.741036 0.593084 0.567260
0.082870 -0.051151 1.039157 -0.670242 0.040520 -0.741036 0.566608 0.598609
-0.504314 -0.373210 2.434093 -0.216657 0.800529 0.558760 0.671174 0.367747
-0.876851 -0.373489 2.290044 -0.216657 0.800529 0.558760 0.603702 0.378461
-0.791162 -0.717487 2.816111 -0.216657 0.800529 0.558760 0.638234 0.279526
-0.391192 -0.369630 1.569786 -0.041839 -0.850728 -0.523939 0.741396 0.041381
-0.632585 -0.767036 2.190999 -0.041839 -0.850728 -0.523939 0.744304 0.149538
-0.919211 -0.700999 2.150000 -0.041839 -0.850728 -0.523939 0.693617 0.155676
-0.542506 -0.266768 1.371512 -0.041839 -0.850728 -0.523939 0.704351 0.016169
-0.542506 -0.266768 1.371512 -0.929056 0.192704 -0.315786 0.448075 0.583540
-0.919211 -0.700999 2.150000 -0.929056 0.192704 -0.315786 0.448075 0.747508
-0.876851 -0.373489 2.290044 -0.929056 0.192704 -0.315786 0.387038 0.739090
-0.562502 -0.038255 1.504979 -0.929056 0.192704 -0.315786 0.402791 0.584808
-0.353589 -0.119945 1.718208 0.940708 -0.316591 0.121810 0.187064 0.227814
-0.504314 -0.373210 2.434093 0.940708 -0.316591 0.121810 0.155019 0.099000
-0.632585 -0.767036 2.190999 0.940708 -0.316591 0.121810 0.237086 0.090888
-0.391192 -0.369630 1.569786 0.940708 -0.316591 0.121810 0.237086 0.224286
-0.562502 -0.038255 1.504979 -0.079358 0.936172 0.342469 0.628323 0.532134
-0.876851 -0.373489 2.290044 -0.079358 0.936172 0.342469 0.603702 0.378461
-0.504314 -0.373210 2.434093 -0.079358 0.936172 0.342469 0.671174 0.367747
-0.353589 -0.119945 1.718208 -0.079358 0.936172 0.342469 0.671174 0.500728
-0.876851 -0.373489 2.290044 -0.980781 0.045750 0.189671 0.387038 0.739090
-0.919211 -0.700999 2.150000 -0.980781 0.045750 0.189671 0.448075 0.747508
-0.791162 -0.717487 2.816111 -0.980781 0.045750 0.189671 0.391790 0.840758
-0.632585 -0.767036 2.190999 0.862738 -0.437497 0.253536 0.237086 0.090888
-0.504314 -0.373210 2.434093 0.862738 -0.437497 0.253536 0.155019 0.099000
-0.791162 -0.717487 2.816111 0.862738 -0.437497 0.253536 0.173164 0.000629
-0.919211 -0.700999 2.150000 -0.227127 -0.973669 0.019560 0.693617 0.155676
-0.632585 -0.767036 2.190999 -0.227127 -0.973669 0.019560 0.744304 0.149538
-0.791162 -0.717487 2.816111 -0.227127 -0.973669 0.019560 0.744304 0.260738
-0.562502 -0.038255 1.504979 0.356087 0.934408 0.009100 0.628323 0.532134
-0.353589 -0.119945 1.718208 0.356087 0.934408 0.009100 0.671174 0.500728
-0.323709 -0.127477 1.322446 0.356087 0.934408 0.009100 0.663479 0.565160
-0.353589 -0.119945 1.718208 0.978056 -0.193381 0.077524 0.187064 0.227814
-0.391192 -0.369630 1.569786 0.978056 -0.193381 0.077524 0.237086 0.224286
-0.323709 -0.127477 1.322446 0.978056 -0.193381 0.077524 0.226611 0.283176
-0.391192 -0.369630 1.569786 0.319512 -0.719218 -0.616959 0.741396 0.041381
-0.542506 -0.266768 1.371512 0.319512 -0.719218 -0.616959 0.704351 0.016169
-0.323709 -0.127477 1.322446 0.319512 -0.719218 -0.616959 0.732502 0.000629
-0.542506 -0.266768 1.371512 -0.445729 0.422070 -0.789419 0.448075 0.583540
-0.562502 -0.038255 1.504979 -0.445729 0.422070 -0.789419 0.402791 0.584808
-0.323709 -0.127477 1.322446 -0.445729 0.422070 -0.789419 0.429905 0.556296
-0.635574 0.152699 1.990402 0.236756 -0.813908 0.530567 0.312691 0.185115
-0.444368 0.269118 2.041535 0.236756 -0.813908 0.530567 0.385780 0.194049
-0.682321 0.376656 2.354820 0.236756 -0.813908 0.530567 0.346967 0.317126
-0.714839 0.313466 2.230260 0.236756 -0.813908 0.530567 0.323762 0.277519
-0.349126 0.178769 1.635810 0.458663 -0.833054 0.309272 0.384105 0.057970
-0.444368 0.269118 2.041535 0.458663 -0.833054 0.309272 0.385780 0.194049
-0.635574 0.152699 1.990402 0.458663 -0.833054 0.309272 0.312691 0.185115
-0.405487 0.100012 1.528371 0.458663 -0.833054 0.309272 0.352458 0.024063
-0.405487 0.100012 1.528371 -0.781909 -0.544501 -0.303543 0.084484 0.609417
-0.635574 0.152699 1.990402 -0.781909 -0.544501 -0.303543 0.077824 0.444453
-0.701796 0.313605 1.908498 -0.781909 -0.544501 -0.303543 0.139117 0.450366
-0.481216 0.212551 1.485420 -0.781909 -0.544501 -0.303543 0.129757 0.605961
-0.404326 0.317813 1.588085 0.867678 0.480311 0.128201 0.153761 0.063362
-0.551379 0.460534 1.949033 0.867678 0.480311 0.128201 0.153761 0.195971
-0.444368 0.269118 2.041535 0.867678 0.480311 0.128201 0.077824 0.188385
-0.349126 0.178769 1.635810 0.867678 0.480311 0.128201 0.104430 0.055593
-0.481216 0.212551 1.485420 -0.510431 0.723751 -0.464376 0.332326 0.575016
-0.701796 0.313605 1.908498 -0.510431 0.723751 -0.464376 0.307334 0.420882
-0.551379 0.460534 1.949033 -0.510431 0.723751 -0.464376 0.375065 0.411001
-0.404326 0.317813 1.588085 -0.510431 0.723751 -0.464376 0.375065 0.543324
-0.687508 0.420503 2.231052 -0.922169 0.233184 0.308594 0.129264 0.350955
-0.754937 0.381773 2.133955 -0.922169 0.233184 0.308594 0.139117 0.373990
-0.714839 0.313466 2.230260 -0.922169 0.233184 0.308594 0.104504 0.354897
-0.682321 0.376656 2.354820 -0.922169 0.233184 0.308594 0.102857 0.318227
-0.701796 0.313605 1.908498 -0.895426 -0.443713 -0.036488 0.139117 0.450366
-0.635574 0.152699 1.990402 -0.895426 -0.443713 -0.036488 0.077824 0.444453
-0.714839 0.313466 2.230260 -0.895426 -0.443713 -0.036488 0.104504 0.354897
-0.754937 0.381773 2.133955 -0.895426 -0.443713 -0.036488 0.139117 0.373990
-0.444368 0.269118 2.041535 0.676893 0.646437 0.352046 0.077824 0.188385
-0.551379 0.460534 1.949033 0.676893 0.646437 0.352046 0.153761 0.195971
-0.687508 0.420503 2.231052 0.676893 0.646437 0.352046 0.118280 0.287968
-0.682321 0.376656 2.354820 0.676893 0.646437 0.352046 0.087795 0.316969
-0.551379 0.460534 1.949033 -0.534921 0.808798 -0.244349 0.375065 0.411001
-0.701796 0.313605 1.908498 -0.534921 0.808798 -0.244349 0.307334 0.420882
-0.754937 0.381773 2.133955 -0.534921 0.808798 -0.244349 0.313236 0.343725
-0.687508 0.420503 2.231052 -0.534921 0.808798 -0.244349 0.340685 0.318384
-0.481216 0.212551 1.485420 -0.019704 0.705424 -0.708511 0.332326 0.575016
-0.404326 0.317813 1.588085 -0.019704 0.705424 -0.708511 0.375065 0.543324
-0.320301 0.180421 1.448955 -0.019704 0.705424 -0.708511 0.366329 0.603920
-0.404326 0.317813 1.588085 0.902137 0.407145 0.142767 0.153761 0.063362
-0.349126 0.178769 1.635810 0.902137 0.407145 0.142767 0.104430 0.055593
-0.320301 0.180421 1.448955 0.902137 0.407145 0.142767 0.129508 0.000629
-0.349126 0.178769 1.635810 0.733499 -0.671182 0.107214 0.384105 0.057970
-0.405487 0.100012 1.528371 0.733499 -0.671182 0.107214 0.352458 0.024063
-0.320301 0.180421 1.448955 0.733499 -0.671182 0.107214 0.385780 0.000629
-0.405487 0.100012 1.528371 -0.285329 -0.503292 -0.815649 0.084484 0.609417
-0.481216 0.212551 1.485420 -0.285329 -0.503292 -0.815649 0.129757 0.605961
-0.320301 0.180421 1.448955 -0.285329 -0.503292 -0.815649 0.103281 0.637311
-0.122583 0.452825 2.265277 0.387480 -0.663793 0.639717 0.155019 0.468425
0.171535 0.511079 2.147574 0.387480 -0.663793 0.639717 0.228117 0.477163
0.017548 0.766951 2.506348 0.387480 -0.663793 0.639717 0.166620 0.561250
-0.051647 0.230032 1.669010 0.347985 -0.863874 0.364182 0.226309 0.341381
0.171535 0.511079 2.147574 0.347985 -0.863874 0.364182 0.228117 0.477163
-0.122583 0.452825 2.265277 0.347985 -0.863874 0.364182 0.155019 0.468425
-0.221596 0.130449 1.620332 0.347985 -0.863874 0.364182 0.194582 0.307554
-0.221596 0.130449 1.620332 -0.923363 -0.250583 0.290876 0.510357 0.585494
-0.122583 0.452825 2.265277 -0.923363 -0.250583 0.290876 0.510357 0.750939
-0.207854 0.668490 2.127465 -0.923363 -0.250583 0.290876 0.449333 0.742436
-0.304152 0.301260 1.558331 -0.923363 -0.250583 0.290876 0.465025 0.587155
-0.105799 0.421862 1.575262 0.885208 0.124177 -0.448315 0.462836 0.343160
0.041505 0.784295 2.006464 0.885208 0.124177 -0.448315 0.462836 0.476176
0.171535 0.511079 2.147574 0.885208 0.124177 -0.448315 0.387038 0.468883
-0.051647 0.230032 1.669010 0.885208 0.124177 -0.448315 0.413307 0.334742
-0.304152 0.301260 1.558331 -0.497763 0.753942 -0.428724 0.697455 0.529337
-0.207854 0.668490 2.127465 -0.497763 0.753942 -0.428724 0.672432 0.375169
0.041505 0.784295 2.006464 -0.497763 0.753942 -0.428724 0.740180 0.365232
-0.105799 0.421862 1.575262 -0.497763 0.753942 -0.428724 0.740180 0.497629
0.041505 0.784295 2.006464 -0.416549 0.909040 0.011576 0.740180 0.365232
-0.207854 0.668490 2.127465 -0.416549 0.909040 0.011576 0.672432 0.375169
0.017548 0.766951 2.506348 -0.416549 0.909040 0.011576 0.678135 0.279526
-0.122583 0.452825 2.265277 -0.858079 -0.011211 0.513395 0.510357 0.750939
0.017548 0.766951 2.506348 -0.858079 -0.011211 0.513395 0.479769 0.838898
-0.207854 0.668490 2.127465 -0.858079 -0.011211 0.513395 0.449333 0.742436
0.017548 0.766951 2.506348 0.889386 0.453417 0.058356 0.401693 0.555038
0.171535 0.511079 2.147574 0.889386 0.453417 0.058356 0.387038 0.468883
0.041505 0.784295 2.006464 0.889386 0.453417 0.058356 0.462836 0.476176
-0.304152 0.301260 1.558331 -0.232050 0.498873 -0.835032 0.697455 0.529337
-0.105799 0.421862 1.575262 -0.232050 0.498873 -0.835032 0.740180 0.497629
-0.157747 0.163356 1.435259 -0.232050 0.498873 -0.835032 0.731353 0.558388
-0.105799 0.421862 1.575262 0.904315 0.047992 -0.424159 0.462836 0.343160
-0.051647 0.230032 1.669010 0.904315 0.047992 -0.424159 0.413307 0.334742
-0.157747 0.163356 1.435259 0.904315 0.047992 -0.424159 0.438345 0.279526
-0.051647 0.230032 1.669010 0.501372 -0.865019 0.019168 0.226309 0.341381
-0.221596 0.130449 1.620332 0.501372 -0.865019 0.019168 0.194582 0.307554
-0.157747 0.163356 1.435259 0.501372 -0.865019 0.019168 0.228117 0.284435
-0.221596 0.130449 1.620332 -0.781969 -0.508688 -0.360224 0.510357 0.585494
-0.304152 0.301260 1.558331 -0.781969 -0.508688 -0.360224 0.465025 0.587155
-0.157747 0.163356 1.435259 -0.781969 -0.508688 -0.360224 0.492443 0.556296
0.657646 -0.099080 2.118335 0.629793 -0.768225 -0.114855 0.000629 0.502218
0.842281 0.081117 1.925483 0.629793 -0.768225 -0.114855 0.073727 0.510956
0.927333 0.082222 2.384467 0.629793 -0.768225 -0.114855 0.012230 0.595042
0.375399 0.021804 1.556262 0.432679 -0.811918 -0.391890 0.071920 0.375173
0.842281 0.081117 1.925483 0.432679 -0.811918 -0.391890 0.073727 0.510956
0.657646 -0.099080 2.118335 0.432679 -0.811918 -0.391890 0.000629 0.502218
0.200424 -0.080851 1.552384 0.432679 -0.811918 -0.391890 0.040192 0.341346
0.200424 -0.080851 1.552384 -0.627207 -0.584204 0.515090 0.733456 0.588844
0.657646 -0.099080 2.118335 -0.627207 -0.584204 0.515090 0.733456 0.754290
0.525272 0.126783 2.183434 -0.627207 -0.584204 0.515090 0.672432 0.745786
0.108889 0.071355 1.643436 -0.627207 -0.584204 0.515090 0.688124 0.590506
0.291544 0.214190 1.623166 0.500780 0.545188 -0.672301 0.539892 0.343160
0.674575 0.345442 2.041558 0.500780 0.545188 -0.672301 0.539892 0.476176
0.842281 0.081117 1.925483 0.500780 0.545188 -0.672301 0.464094 0.468883
0.375399 0.021804 1.556262 0.500780 0.545188 -0.672301 0.490363 0.334742
0.108889 0.071355 1.643436 -0.600206 0.713397 0.361686 0.766461 0.529337
0.525272 0.126783 2.183434 -0.600206 0.713397 0.361686 0.741438 0.375169
0.674575 0.345442 2.041558 -0.600206 0.713397 0.361686 0.809186 0.365232
0.291544 0.214190 1.623166 -0.600206 0.713397 0.361686 0.809186 0.497629
0.674575 0.345442 2.041558 -0.280999 0.650000 0.706073 0.809186 0.365232
0.525272 0.126783 2.183434 -0.280999 0.650000 0.706073 0.741438 0.375169
0.927333 0.082222 2.384467 -0.280999 0.650000 0.706073 0.747141 0.279526
0.657646 -0.099080 2.118335 -0.435039 -0.475374 0.764697 0.733456 0.754290
0.927333 0.082222 2.384467 -0.435039 -0.475374 0.764697 0.702868 0.842249
0.525272 0.126783 2.183434 -0.435039 -0.475374 0.764697 0.672432 0.745786
0.927333 0.082222 2.384467 0.803610 0.575866 -0.150300 0.478749 0.555038
0.842281 0.081117 1.925483 0.803610 0.575866 -0.150300 0.464094 0.468883
0.674575 0.345442 2.041558 0.803610 0.575866 -0.150300 0.539892 0.476176
0.108889 0.071355 1.643436 -0.618077 0.764265 -0.184064 0.766461 0.529337
0.291544 0.214190 1.623166 -0.618077 0.764265 -0.184064 0.809186 0.497629
0.154443 0.052660 1.412841 -0.618077 0.764265 -0.184064 0.800359 0.558388
0.291544 0.214190 1.623166 0.524918 0.474524 -0.706603 0.539892 0.343160
0.375399 0.021804 1.556262 0.524918 0.474524 -0.706603 0.490363 0.334742
0.154443 0.052660 1.412841 0.524918 0.474524 -0.706603 0.515402 0.279526
0.375399 0.021804 1.556262 0.371488 -0.606650 -0.702832 0.071920 0.375173
0.200424 -0.080851 1.552384 0.371488 -0.606650 -0.702832 0.040192 0.341346
0.154443 0.052660 1.412841 0.371488 -0.606650 -0.702832 0.073727 0.318227
0.200424 -0.080851 1.552384 -0.883072 -0.448458 -0.138094 0.733456 0.588844
0.108889 0.071355 1.643436 -0.883072 -0.448458 -0.138094 0.688124 0.590506
0.154443 0.052660 1.412841 -0.883072 -0.448458 -0.138094 0.715541 0.559646
0.011366 -0.261165 1.140844 -0.980724 -0.037410 -0.191785 0.447535 0.278268
-0.159587 -0.988683 2.156956 -0.980724 -0.037410 -0.191785 0.387038 0.056849
-0.210538 -0.617305 2.345060 -0.980724 -0.037410 -0.191785 0.462682 0.046701
0.001164 -0.186801 1.178509 -0.980724 -0.037410 -0.191785 0.462682 0.276236
0.001164 -0.186801 1.178509 -0.117690 0.938382 0.324943 0.600928 0.237678
-0.210538 -0.617305 2.345060 -0.117690 0.938382 0.324943 0.540842 0.075068
0.205676 -0.575697 2.375651 -0.117690 0.938382 0.324943 0.615972 0.061632
0.084505 -0.178469 1.184635 -0.117690 0.938382 0.324943 0.615972 0.234988
0.084505 -0.178469 1.184635 0.986115 0.159209 -0.047225 0.524437 0.278268
0.205676 -0.575697 2.375651 0.986115 0.159209 -0.047225 0.463940 0.056849
0.256627 -0.947075 2.187547 0.986115 0.159209 -0.047225 0.539584 0.046701
0.094708 -0.252833 1.146969 0.986115 0.159209 -0.047225 0.539584 0.276236
0.094708 -0.252833 1.146969 0.123082 -0.816584 -0.563952 0.677316 0.237678
0.256627 -0.947075 2.187547 0.123082 -0.816584 -0.563952 0.617230 0.075068
-0.159587 -0.988683 2.156956 0.123082 -0.816584 -0.563952 0.692359 0.061632
0.011366 -0.261165 1.140844 0.123082 -0.816584 -0.563952 0.692359 0.234988
0.001164 -0.186801 1.178509 0.020093 0.453949 -0.890801 0.540842 0.238936
0.084505 -0.178469 1.184635 0.020093 0.453949 -0.890801 0.556125 0.238936
0.094708 -0.252833 1.146969 0.020093 0.453949 -0.890801 0.556125 0.254219
0.011366 -0.261165 1.140844 0.020093 0.453949 -0.890801 0.540842 0.254219
0.205676 -0.575697 2.375651 -0.112226 0.484964 0.867303 0.615972 0.061632
-0.210538 -0.617305 2.345060 -0.112226 0.484964 0.867303 0.540842 0.075068
0.016724 -0.924982 2.546508 -0.112226 0.484964 0.867303 0.566295 0.000629
-0.210538 -0.617305 2.345060 -0.836864 -0.334351 0.433438 0.462682 0.046701
-0.159587 -0.988683 2.156956 -0.836864 -0.334351 0.433438 0.387038 0.056849
0.016724 -0.924982 2.546508 -0.836864 -0.334351 0.433438 0.417998 0.000629
-0.159587 -0.988683 2.156956 0.089936 -0.988576 0.120951 0.692359 0.061632
0.256627 -0.947075 2.187547 0.089936 -0.988576 0.120951 0.617230 0.075068
0.016724 -0.924982 2.546508 0.089936 -0.988576 0.120951 0.642683 0.000629
0.256627 -0.947075 2.187547 0.814573 -0.169261 0.554817 0.539584 0.046701
0.205676 -0.575697 2.375651 0.814573 -0.169261 0.554817 0.463940 0.056849
0.016724 -0.924982 2.546508 0.814573 -0.169261 0.554817 0.494900 0.000629
0.000481 2.684976 1.174885 -0.343563 0.829291 -0.440728 0.338387 0.712555
-0.000438 0.000031 -3.876502 -0.343563 0.829291 -0.440728 0.357992 0.605179
-1.898118 1.898585 1.175205 -0.343563 0.829291 -0.440728 0.377597 0.712555
-1.898118 1.898585 1.175205 -0.829351 0.343518 -0.440649 0.220393 0.787032
-0.000438 0.000031 -3.876502 -0.829351 0.343518 -0.440649 0.220393 0.893309
-2.684568 0.000012 1.175318 -0.829351 0.343518 -0.440649 0.190126 0.788438
-2.684568 0.000012 1.175318 -0.829362 -0.343481 -0.440658 0.190126 0.788438
-0.000438 0.000031 -3.876502 -0.829362 -0.343481 -0.440658 0.220393 0.893309
-1.898178 -1.898587 1.175159 -0.829362 -0.343481 -0.440658 0.155019 0.805901
-1.898178 -1.898587 1.175159 -0.343589 -0.829270 -0.440748 0.066004 0.820825
-0.000438 0.000031 -3.876502 -0.343589 -0.829270 -0.440748 0.066004 0.927101
0.000396 -2.685037 1.174820 -0.343589 -0.829270 -0.440748 0.035736 0.822230
0.000396 -2.685037 1.174820 0.343410 -0.829281 -0.440867 0.035736 0.822230
-0.000438 0.000031 -3.876502 0.343410 -0.829281 -0.440867 0.066004 0.927101
1.898994 -1.898647 1.174500 0.343410 -0.829281 -0.440867 0.000629 0.839693
1.898994 -1.898647 1.174500 0.829198 -0.343507 -0.440945 0.625907 0.824392
-0.000438 0.000031 -3.876502 0.829198 -0.343507 -0.440945 0.625907 0.930668
2.685444 -0.000073 1.174386 0.829198 -0.343507 -0.440945 0.595639 0.825797
0.000481 2.684976 1.174885 0.000174 -0.000012 1.000000 0.238344 0.896639
-1.898118 1.898585 1.175205 0.000174 -0.000012 1.000000 0.238344 0.857429
-2.684568 0.000012 1.175318 0.000174 -0.000012 1.000000 0.266070 0.829703
-1.898178 -1.898587 1.175159 0.000174 -0.000012 1.000000 0.305281 0.829703
0.000396 -2.685037 1.174820 0.000174 -0.000012 1.000000 0.333007 0.857429
1.898994 -1.898647 1.174500 0.000174 -0.000012 1.000000 0.333007 0.896639
2.685444 -0.000073 1.174386 0.000174 -0.000012 1.000000 0.305281 0.924365
1.899055 1.898525 1.174546 0.000174 -0.000012 1.000000 0.266070 0.924365
2.685444 -0.000073 1.174386 0.829209 0.343491 -0.440937 0.595639 0.825797
-0.000438 0.000031 -3.876502 0.829209 0.343491 -0.440937 0.625907 0.930668
1.899055 1.898525 1.174546 0.829209 0.343491 -0.440937 0.560532 0.843260
1.899055 1.898525 1.174546 0.343436 0.829280 -0.440847 0.560532 0.843260
-0.000438 0.000031 -3.876502 0.343436 0.829280 -0.440847 0.625907 0.930668
0.000481 2.684976 1.174885 0.343436 0.829280 -0.440847 0.541151 0.866551
3 0 1 2
3 3 4 5
3 6 7 8
3 9 10 11
3 12 13 14
3 15 16 17
3 18 19 20
3 21 22 23
3 24 25 26
3 27 28 29
3 30 31 32
3 33 34 35
3 36 37 38
3 39 40 41
3 42 43 44
3 45 46 47
3 48 49 50
3 51 52 53
3 54 55 56
3 57 58 59
3 60 61 62
3 63 64 65
3 66 67 68
3 69 70 71
3 72 73 74
3 75 76 77
3 78 79 80
3 81 82 83
3 84 85 86
3 87 88 89
3 90 91 92
3 93 94 95
3 96 97 98
3 99 100 101
3 102 103 104
3 105 106 107
3 108 109 110
3 111 112 113
3 114 115 116
3 117 118 119
3 120 121 122
3 123 124 125
3 126 127 128
3 129 130 131
3 132 133 134
3 135 136 137
3 138 139 140
3 141 142 143
4 144 145 146 147
4 148 149 150 151
4 152 153 154 155
4 156 157 158 159
4 160 161 162 163
4 164 165 166 167
4 168 169 170 171
4 172 173 174 175
4 176 177 178 179
3 180 181 182
3 183 184 185
3 186 187 188
3 189 190 191
3 192 193 194
4 195 196 197 198
4 199 200 201 202
4 203 204 205 206
4 207 208 209 210
3 211 212 213
3 214 215 216
3 217 218 219
3 220 221 222
3 223 224 225
3 226 227 228
3 229 230 231
4 232 233 234 235
4 236 237 238 239
4 240 241 242 243
4 244 245 246 247
4 248 249 250 251
4 252 253 254 255
4 256 257 258 259
4 260 261 262 263
4 264 265 266 267
3 268 269 270
3 271 272 273
3 274 275 276
3 277 278 279
3 280 281 282
4 283 284 285 286
4 287 288 289 290
4 291 292 293 294
4 295 296 297 298
3 299 300 301
3 302 303 304
3 305 306 307
3 308 309 310
3 311 312 313
3 314 315 316
3 317 318 319
3 320 321 322
4 323 324 325 326
4 327 328 329 330
4 331 332 333 334
4 335 336 337 338
3 339 340 341
3 342 343 344
3 345 346 347
3 348 349 350
3 351 352 353
3 354 355 356
3 357 358 359
4 360 361 362 363
4 364 365 366 367
4 368 369 370 371
4 372 373 374 375
4 376 377 378 379
3 380 381 382
3 383 384 385
3 386 387 388
3 389 390 391
3 392 393 394
3 395 396 397
3 398 399 400
3 401 402 403
3 404 405 406
3 407 408 409
8 410 411 412 413 414 415 416 417
3 418 419 420
3 421 422 423
