ply
format ascii 1.0
comment Created by Blender 3.0.0 - www.blender.org
element vertex 224
property float x
property float y
property float z
property float nx
property float ny
property float nz
property float s
property float t
element face 62
property list uchar uint vertex_indices
end_header
2.265930 -3.720109 -0.038526 0.241438 -0.093658 -0.965886 0.429812 0.177987
2.360132 -3.461136 -0.018646 0.241438 -0.093658 -0.965886 0.454225 0.178903
2.601087 -3.544094 0.028184 0.241438 -0.093658 -0.965886 0.454225 0.201902
2.478679 -3.751680 0.039160 0.241438 -0.093658 -0.965886 0.433079 0.197886
2.601087 -3.544094 0.028184 0.054146 0.983268 -0.173933 0.203536 0.295486
2.360132 -3.461136 -0.018646 0.054146 0.983268 -0.173933 0.182033 0.297784
1.990566 -3.314640 1.135262 0.054146 0.983268 -0.173933 0.156361 0.192670
2.522724 -3.275060 1.083883 0.054146 0.983268 -0.173933 0.203536 0.200242
2.265930 -3.720109 -0.038526 -0.085051 -0.995372 -0.044721 0.516527 0.442618
2.478679 -3.751680 0.039160 -0.085051 -0.995372 -0.044721 0.496205 0.442123
2.332451 -3.772348 0.997648 -0.085051 -0.995372 -0.044721 0.481835 0.357578
1.918318 -3.747659 1.015379 -0.085051 -0.995372 -0.044721 0.516527 0.344610
2.478679 -3.751680 0.039160 0.897512 -0.414274 0.151161 0.510787 0.116769
2.601087 -3.544094 0.028184 0.897512 -0.414274 0.151161 0.489547 0.116877
2.522724 -3.275060 1.083883 0.897512 -0.414274 0.151161 0.487830 0.049237
2.332451 -3.772348 0.997648 0.897512 -0.414274 0.151161 0.533106 0.060998
2.243630 -3.489632 0.050471 -0.908180 0.281095 -0.310154 0.187655 0.448435
2.182856 -3.638561 0.036871 -0.908180 0.281095 -0.310154 0.174285 0.452236
1.890272 -3.662295 0.928673 -0.908180 0.281095 -0.310154 0.158935 0.379751
1.934963 -3.367420 1.008478 -0.908180 0.281095 -0.310154 0.184216 0.368831
1.918318 -3.747659 1.015379 -0.039194 -0.926411 0.374468 0.516527 0.344610
2.332451 -3.772348 0.997648 -0.039194 -0.926411 0.374468 0.481835 0.357578
2.026588 -3.503445 1.630883 -0.039194 -0.926411 0.374468 0.491354 0.293733
2.332451 -3.772348 0.997648 0.758314 -0.381776 0.528400 0.533106 0.060998
2.522724 -3.275060 1.083883 0.758314 -0.381776 0.528400 0.487830 0.049237
2.026588 -3.503445 1.630883 0.758314 -0.381776 0.528400 0.533106 0.000000
2.522724 -3.275060 1.083883 -0.034837 0.933078 0.357983 0.203536 0.200242
1.990566 -3.314640 1.135262 -0.034837 0.933078 0.357983 0.156361 0.192670
2.026588 -3.503445 1.630883 -0.034837 0.933078 0.357983 0.161990 0.149897
1.990566 -3.314640 1.135262 -0.983990 0.130604 0.121268 0.187655 0.356364
1.918318 -3.747659 1.015379 -0.983990 0.130604 0.121268 0.150518 0.372738
2.026588 -3.503445 1.630883 -0.983990 0.130604 0.121268 0.165032 0.314901
2.182856 -3.638561 0.036871 -0.518722 0.263830 -0.813217 0.433680 0.170479
2.243630 -3.489632 0.050471 -0.518722 0.263830 -0.813217 0.447904 0.171591
2.360132 -3.461136 -0.018646 -0.518722 0.263830 -0.813217 0.454225 0.178903
2.265930 -3.720109 -0.038526 -0.518722 0.263830 -0.813217 0.429812 0.177987
1.934963 -3.367420 1.008478 -0.927562 0.047332 0.370660 0.184216 0.368831
1.890272 -3.662295 0.928673 -0.927562 0.047332 0.370660 0.158935 0.379751
1.918318 -3.747659 1.015379 -0.927562 0.047332 0.370660 0.150518 0.372738
1.990566 -3.314640 1.135262 -0.927562 0.047332 0.370660 0.187655 0.356364
2.243630 -3.489632 0.050471 -0.352053 0.907649 -0.228544 0.171995 0.291096
1.934963 -3.367420 1.008478 -0.352053 0.907649 -0.228544 0.150518 0.203814
1.990566 -3.314640 1.135262 -0.352053 0.907649 -0.228544 0.156361 0.192670
2.360132 -3.461136 -0.018646 -0.352053 0.907649 -0.228544 0.182033 0.297784
1.890272 -3.662295 0.928673 -0.791652 -0.545654 -0.274860 0.158935 0.379751
2.182856 -3.638561 0.036871 -0.791652 -0.545654 -0.274860 0.174285 0.452236
2.265930 -3.720109 -0.038526 -0.791652 -0.545654 -0.274860 0.168627 0.458375
1.918318 -3.747659 1.015379 -0.791652 -0.545654 -0.274860 0.150518 0.372738
2.480107 -3.516611 0.016791 -0.060686 -0.396603 -0.915982 0.596827 0.412967
2.539247 -3.420202 -0.019157 -0.060686 -0.396603 -0.915982 0.597042 0.423104
2.636780 -3.473372 -0.012311 -0.060686 -0.396603 -0.915982 0.587272 0.423104
2.573615 -3.542772 0.031636 -0.060686 -0.396603 -0.915982 0.588300 0.414877
2.636780 -3.473372 -0.012311 0.681600 0.631297 -0.369981 0.660807 0.294289
2.539247 -3.420202 -0.019157 0.681600 0.631297 -0.369981 0.669372 0.293732
2.543285 -3.143958 0.377525 0.681600 0.631297 -0.369981 0.669317 0.330316
2.709009 -3.327331 0.452053 0.681600 0.631297 -0.369981 0.655122 0.336377
2.480107 -3.516611 0.016791 -0.277539 -0.927634 0.249934 0.014313 0.587370
2.573615 -3.542772 0.031636 -0.277539 -0.927634 0.249934 0.022593 0.589634
2.623594 -3.430369 0.496215 -0.277539 -0.927634 0.249934 0.020884 0.631683
2.388848 -3.369194 0.470701 -0.277539 -0.927634 0.249934 0.000000 0.627008
2.573615 -3.542772 0.031636 0.773742 -0.629248 0.073274 0.022593 0.589634
2.636780 -3.473372 -0.012311 0.773742 -0.629248 0.073274 0.028132 0.586884
2.709009 -3.327331 0.452053 0.773742 -0.629248 0.073274 0.028132 0.629355
2.623594 -3.430369 0.496215 0.773742 -0.629248 0.073274 0.020884 0.631683
2.539247 -3.420202 -0.019157 -0.845214 0.438718 -0.305186 0.516527 0.636304
2.480107 -3.516611 0.016791 -0.845214 0.438718 -0.305186 0.507696 0.639573
2.388848 -3.369194 0.470701 -0.845214 0.438718 -0.305186 0.495444 0.601341
2.543285 -3.143958 0.377525 -0.845214 0.438718 -0.305186 0.516527 0.594079
2.388848 -3.369194 0.470701 -0.218171 -0.483656 0.847631 0.828330 0.224626
2.623594 -3.430369 0.496215 -0.218171 -0.483656 0.847631 0.833557 0.209281
2.550007 -3.185935 0.616748 -0.218171 -0.483656 0.847631 0.845955 0.230965
2.623594 -3.430369 0.496215 0.620750 -0.188397 0.761036 0.833557 0.209281
2.709009 -3.327331 0.452053 0.620750 -0.188397 0.761036 0.845955 0.207172
2.550007 -3.185935 0.616748 0.620750 -0.188397 0.761036 0.845955 0.230965
2.709009 -3.327331 0.452053 0.717406 0.689324 0.100798 0.655122 0.336377
2.543285 -3.143958 0.377525 0.717406 0.689324 0.100798 0.669317 0.330316
2.550007 -3.185935 0.616748 0.717406 0.689324 0.100798 0.669372 0.351346
2.543285 -3.143958 0.377525 -0.792822 0.596100 0.126878 0.516527 0.594079
2.388848 -3.369194 0.470701 -0.792822 0.596100 0.126878 0.495444 0.601341
2.550007 -3.185935 0.616748 -0.792822 0.596100 0.126878 0.501246 0.578969
2.302017 -3.795737 -0.078709 0.091375 0.678048 -0.729316 0.766416 0.506647
2.292384 -3.733778 -0.008258 0.091375 0.678048 -0.729316 0.763394 0.512518
2.384694 -3.730094 -0.007322 0.091375 0.678048 -0.729316 0.756454 0.508084
2.366516 -3.792745 -0.053792 0.091375 0.678048 -0.729316 0.760377 0.505349
2.384694 -3.730094 -0.007322 0.055609 0.948252 0.312611 0.756454 0.508084
2.292384 -3.733778 -0.008258 0.055609 0.948252 0.312611 0.763394 0.512518
2.096005 -3.792922 0.234608 0.055609 0.948252 0.312611 0.766416 0.539970
2.252334 -3.820197 0.261004 0.055609 0.948252 0.312611 0.753607 0.534205
2.302017 -3.795737 -0.078709 0.266613 -0.895297 -0.356875 0.742317 0.207255
2.366516 -3.792745 -0.053792 0.266613 -0.895297 -0.356875 0.748469 0.207172
2.218489 -3.965804 0.285540 0.266613 -0.895297 -0.356875 0.748469 0.238463
2.098513 -3.951970 0.145437 0.266613 -0.895297 -0.356875 0.733765 0.231097
2.366516 -3.792745 -0.053792 0.914560 -0.260999 0.308967 0.826317 0.548312
2.384694 -3.730094 -0.007322 0.914560 -0.260999 0.308967 0.820428 0.549938
2.252334 -3.820197 0.261004 0.914560 -0.260999 0.308967 0.816280 0.525983
2.218489 -3.965804 0.285540 0.914560 -0.260999 0.308967 0.826317 0.517070
2.292384 -3.733778 -0.008258 -0.786642 0.332519 -0.520217 0.791066 0.506042
2.302017 -3.795737 -0.078709 -0.786642 0.332519 -0.520217 0.799092 0.505349
2.098513 -3.951970 0.145437 -0.786642 0.332519 -0.520217 0.799092 0.528396
2.096005 -3.792922 0.234608 -0.786642 0.332519 -0.520217 0.783604 0.524382
2.098513 -3.951970 0.145437 -0.096422 -0.995217 -0.015702 0.733765 0.231097
2.218489 -3.965804 0.285540 -0.096422 -0.995217 -0.015702 0.748469 0.238463
2.085380 -3.954063 0.358789 -0.096422 -0.995217 -0.015702 0.739934 0.249005
2.218489 -3.965804 0.285540 0.484180 0.034780 0.874277 0.826317 0.517070
2.252334 -3.820197 0.261004 0.484180 0.034780 0.874277 0.816280 0.525983
2.085380 -3.954063 0.358789 0.484180 0.034780 0.874277 0.819697 0.505349
2.252334 -3.820197 0.261004 -0.026890 0.611299 0.790943 0.753607 0.534205
2.096005 -3.792922 0.234608 -0.026890 0.611299 0.790943 0.766416 0.539970
2.085380 -3.954063 0.358789 -0.026890 0.611299 0.790943 0.761889 0.549245
2.096005 -3.792922 0.234608 -0.997949 0.018605 -0.061246 0.783604 0.524382
2.098513 -3.951970 0.145437 -0.997949 0.018605 -0.061246 0.799092 0.528396
2.085380 -3.954063 0.358789 -0.997949 0.018605 -0.061246 0.786679 0.542181
3.690383 3.350675 -0.023204 -0.098545 -0.097380 -0.990356 0.600400 0.245485
3.902864 3.526406 -0.040711 -0.098545 -0.097380 -0.990356 0.624813 0.246401
4.072598 3.331529 -0.059353 -0.098545 -0.097380 -0.990356 0.624813 0.269400
3.870537 3.210823 -0.006463 -0.098545 -0.097380 -0.990356 0.603667 0.265384
4.072598 3.331529 -0.059353 0.491171 0.842415 -0.221556 0.273743 0.295486
3.902864 3.526406 -0.040711 0.491171 0.842415 -0.221556 0.252240 0.297784
3.970881 3.712466 1.163572 0.491171 0.842415 -0.221556 0.226567 0.192670
4.416899 3.491161 0.964851 0.491171 0.842415 -0.221556 0.273743 0.200242
3.690383 3.350675 -0.023204 -0.579609 -0.814631 0.020762 0.470642 0.148885
3.870537 3.210823 -0.006463 -0.579609 -0.814631 0.020762 0.450319 0.148390
3.988640 3.163395 0.954948 -0.579609 -0.814631 0.020762 0.435949 0.063845
3.663502 3.385971 1.086004 -0.579609 -0.814631 0.020762 0.470642 0.050877
3.870537 3.210823 -0.006463 0.573538 -0.814489 -0.087538 0.510787 0.250763
4.072598 3.331529 -0.059353 0.573538 -0.814489 -0.087538 0.489547 0.250871
4.416899 3.491161 0.964851 0.573538 -0.814489 -0.087538 0.487830 0.183231
3.988640 3.163395 0.954948 0.573538 -0.814489 -0.087538 0.533106 0.194992
3.810351 3.551587 0.059135 -0.690286 0.721308 -0.056741 0.241980 0.448434
3.682142 3.453994 0.068956 -0.690286 0.721308 -0.056741 0.228611 0.452236
3.660475 3.482731 1.007137 -0.690286 0.721308 -0.056741 0.213260 0.379751
3.865591 3.707470 1.059453 -0.690286 0.721308 -0.056741 0.238542 0.368831
3.663502 3.385971 1.086004 -0.398247 -0.821748 0.407589 0.470642 0.050877
3.988640 3.163395 0.954948 -0.398247 -0.821748 0.407589 0.435949 0.063845
4.035099 3.479112 1.636866 -0.398247 -0.821748 0.407589 0.445468 0.000000
3.988640 3.163395 0.954948 0.572895 -0.757966 0.311895 0.533106 0.194992
4.416899 3.491161 0.964851 0.572895 -0.757966 0.311895 0.487830 0.183231
4.035099 3.479112 1.636866 0.572895 -0.757966 0.311895 0.533106 0.133994
4.416899 3.491161 0.964851 0.530881 0.786440 0.315717 0.273743 0.200242
3.970881 3.712466 1.163572 0.530881 0.786440 0.315717 0.226567 0.192670
4.035099 3.479112 1.636866 0.530881 0.786440 0.315717 0.232197 0.149897
3.970881 3.712466 1.163572 -0.715981 0.582723 0.384454 0.241980 0.356364
3.663502 3.385971 1.086004 -0.715981 0.582723 0.384454 0.204843 0.372737
4.035099 3.479112 1.636866 -0.715981 0.582723 0.384454 0.219358 0.314901
3.682142 3.453994 0.068956 -0.508017 0.568528 -0.647066 0.604268 0.237977
3.810351 3.551587 0.059135 -0.508017 0.568528 -0.647066 0.618493 0.239089
3.902864 3.526406 -0.040711 -0.508017 0.568528 -0.647066 0.624813 0.246401
3.690383 3.350675 -0.023204 -0.508017 0.568528 -0.647066 0.600400 0.245485
3.865591 3.707470 1.059453 -0.646160 0.456666 0.611500 0.238542 0.368831
3.660475 3.482731 1.007137 -0.646160 0.456666 0.611500 0.213260 0.379751
3.663502 3.385971 1.086004 -0.646160 0.456666 0.611500 0.204843 0.372737
3.970881 3.712466 1.163572 -0.646160 0.456666 0.611500 0.241980 0.356364
3.810351 3.551587 0.059135 0.103621 0.981971 -0.158101 0.242201 0.291096
3.865591 3.707470 1.059453 0.103621 0.981971 -0.158101 0.220724 0.203814
3.970881 3.712466 1.163572 0.103621 0.981971 -0.158101 0.226567 0.192670
3.902864 3.526406 -0.040711 0.103621 0.981971 -0.158101 0.252240 0.297784
3.660475 3.482731 1.007137 -0.998258 -0.054760 -0.021958 0.213260 0.379751
3.682142 3.453994 0.068956 -0.998258 -0.054760 -0.021958 0.228611 0.452236
3.690383 3.350675 -0.023204 -0.998258 -0.054760 -0.021958 0.222953 0.458375
3.663502 3.385971 1.086004 -0.998258 -0.054760 -0.021958 0.204843 0.372737
3.983443 3.415837 -0.037791 -0.486622 -0.216558 -0.846346 0.685481 0.087938
4.071156 3.474033 -0.092601 -0.486622 -0.216558 -0.846346 0.685697 0.098075
4.126916 3.379483 -0.110981 -0.486622 -0.216558 -0.846346 0.675927 0.098075
4.051464 3.345781 -0.048462 -0.486622 -0.216558 -0.846346 0.676954 0.089848
4.126916 3.379483 -0.110981 0.782501 0.250944 -0.569842 0.467223 0.591390
4.071156 3.474033 -0.092601 0.782501 0.250944 -0.569842 0.475787 0.590833
4.315771 3.669114 0.275898 0.782501 0.250944 -0.569842 0.475733 0.627417
4.380352 3.421338 0.308778 0.782501 0.250944 -0.569842 0.461537 0.633477
3.983443 3.415837 -0.037791 -0.628123 -0.692765 0.354313 0.564607 0.224381
4.051464 3.345781 -0.048462 -0.628123 -0.692765 0.354313 0.572887 0.226645
4.269755 3.369426 0.379037 -0.628123 -0.692765 0.354313 0.571178 0.268693
4.099800 3.540163 0.417290 -0.628123 -0.692765 0.354313 0.550294 0.264019
4.051464 3.345781 -0.048462 0.343551 -0.931530 -0.119263 0.572887 0.226645
4.126916 3.379483 -0.110981 0.343551 -0.931530 -0.119263 0.578426 0.223895
4.380352 3.421338 0.308778 0.343551 -0.931530 -0.119263 0.578426 0.266366
4.269755 3.369426 0.379037 0.343551 -0.931530 -0.119263 0.571178 0.268693
4.071156 3.474033 -0.092601 -0.558165 0.826260 -0.075806 0.554799 0.643744
3.983443 3.415837 -0.037791 -0.558165 0.826260 -0.075806 0.545968 0.647013
4.099800 3.540163 0.417290 -0.558165 0.826260 -0.075806 0.533716 0.608781
4.315771 3.669114 0.275898 -0.558165 0.826260 -0.075806 0.554799 0.601519
4.099800 3.540163 0.417290 -0.201663 -0.400952 0.893627 0.828330 0.265537
4.269755 3.369426 0.379037 -0.201663 -0.400952 0.893627 0.833557 0.250192
4.362537 3.604232 0.505328 -0.201663 -0.400952 0.893627 0.845955 0.271876
4.269755 3.369426 0.379037 0.616448 -0.547796 0.565607 0.833557 0.250192
4.380352 3.421338 0.308778 0.616448 -0.547796 0.565607 0.845955 0.248083
4.362537 3.604232 0.505328 0.616448 -0.547796 0.565607 0.845955 0.271876
4.380352 3.421338 0.308778 0.963508 0.233844 -0.130268 0.461537 0.633477
4.315771 3.669114 0.275898 0.963508 0.233844 -0.130268 0.475733 0.627417
4.362537 3.604232 0.505328 0.963508 0.233844 -0.130268 0.475787 0.648446
4.315771 3.669114 0.275898 -0.323844 0.891066 0.318004 0.554799 0.601519
4.099800 3.540163 0.417290 -0.323844 0.891066 0.318004 0.533716 0.608781
4.362537 3.604232 0.505328 -0.323844 0.891066 0.318004 0.539518 0.586409
3.671927 3.271800 -0.068751 0.224892 0.618796 -0.752672 0.778466 0.208470
3.713271 3.322679 -0.000950 0.224892 0.618796 -0.752672 0.775444 0.214341
3.791609 3.280498 -0.025840 0.224892 0.618796 -0.752672 0.768504 0.209907
3.733181 3.240124 -0.062871 0.224892 0.618796 -0.752672 0.772428 0.207172
3.791609 3.280498 -0.025840 0.601384 0.760005 0.246435 0.768504 0.209907
3.713271 3.322679 -0.000950 0.601384 0.760005 0.246435 0.775444 0.214341
3.584630 3.342163 0.289082 0.601384 0.760005 0.246435 0.778466 0.241792
3.706989 3.239115 0.272092 0.601384 0.760005 0.246435 0.765657 0.236028
3.671927 3.271800 -0.068751 -0.320243 -0.867539 -0.380553 0.730266 0.505432
3.733181 3.240124 -0.062871 -0.320243 -0.867539 -0.380553 0.736419 0.505349
3.612602 3.127161 0.310903 -0.320243 -0.867539 -0.380553 0.736419 0.536640
3.483984 3.212767 0.209200 -0.320243 -0.867539 -0.380553 0.721715 0.529274
3.733181 3.240124 -0.062871 0.705297 -0.706926 0.053022 0.131872 0.430695
3.791609 3.280498 -0.025840 0.705297 -0.706926 0.053022 0.125983 0.432321
3.706989 3.239115 0.272092 0.705297 -0.706926 0.053022 0.121835 0.408366
3.612602 3.127161 0.310903 0.705297 -0.706926 0.053022 0.131872 0.399453
3.713271 3.322679 -0.000950 -0.618798 0.728383 -0.294190 0.803116 0.207865
3.671927 3.271800 -0.068751 -0.618798 0.728383 -0.294190 0.811142 0.207172
3.483984 3.212767 0.209200 -0.618798 0.728383 -0.294190 0.811142 0.230219
3.584630 3.342163 0.289082 -0.618798 0.728383 -0.294190 0.795655 0.226205
3.483984 3.212767 0.209200 -0.581379 -0.811985 0.051767 0.721715 0.529274
3.612602 3.127161 0.310903 -0.581379 -0.811985 0.051767 0.736419 0.536640
3.527565 3.194856 0.417709 -0.581379 -0.811985 0.051767 0.727884 0.547182
3.612602 3.127161 0.310903 0.644678 -0.299720 0.703248 0.131872 0.399453
3.706989 3.239115 0.272092 0.644678 -0.299720 0.703248 0.121835 0.408366
3.527565 3.194856 0.417709 0.644678 -0.299720 0.703248 0.125252 0.387732
3.706989 3.239115 0.272092 0.489123 0.458442 0.742017 0.765657 0.236028
3.584630 3.342163 0.289082 0.489123 0.458442 0.742017 0.778466 0.241792
3.527565 3.194856 0.417709 0.489123 0.458442 0.742017 0.773940 0.251068
3.584630 3.342163 0.289082 -0.830973 0.511964 0.217662 0.795655 0.226205
3.483984 3.212767 0.209200 -0.830973 0.511964 0.217662 0.811142 0.230219
3.527565 3.194856 0.417709 -0.830973 0.511964 0.217662 0.798730 0.244005
4 0 1 2 3
4 4 5 6 7
4 8 9 10 11
4 12 13 14 15
4 16 17 18 19
3 20 21 22
3 23 24 25
3 26 27 28
3 29 30 31
4 32 33 34 35
4 36 37 38 39
4 40 41 42 43
4 44 45 46 47
4 48 49 50 51
4 52 53 54 55
4 56 57 58 59
4 60 61 62 63
4 64 65 66 67
3 68 69 70
3 71 72 73
3 74 75 76
3 77 78 79
4 80 81 82 83
4 84 85 86 87
4 88 89 90 91
4 92 93 94 95
4 96 97 98 99
3 100 101 102
3 103 104 105
3 106 107 108
3 109 110 111
4 112 113 114 115
4 116 117 118 119
4 120 121 122 123
4 124 125 126 127
4 128 129 130 131
3 132 133 134
3 135 136 137
3 138 139 140
3 141 142 143
4 144 145 146 147
4 148 149 150 151
4 152 153 154 155
4 156 157 158 159
4 160 161 162 163
4 164 165 166 167
4 168 169 170 171
4 172 173 174 175
4 176 177 178 179
3 180 181 182
3 183 184 185
3 186 187 188
3 189 190 191
4 192 193 194 195
4 196 197 198 199
4 200 201 202 203
4 204 205 206 207
4 208 209 210 211
3 212 213 214
3 215 216 217
3 218 219 220
3 221 222 223
